<svg width="16" height="16" viewBox="0 0 16 16" fill="none" xmlns="http://www.w3.org/2000/svg">
<g id="Medical / Eye">
<g id="Union">
<path fill-rule="evenodd" clip-rule="evenodd" d="M7.99992 5.99999C6.89535 5.99999 5.99992 6.89542 5.99992 7.99999C5.99992 9.10456 6.89535 9.99999 7.99992 9.99999C9.10449 9.99999 9.99992 9.10456 9.99992 7.99999C9.99992 6.89542 9.10449 5.99999 7.99992 5.99999ZM7.33325 7.99999C7.33325 7.6318 7.63173 7.33332 7.99992 7.33332C8.36811 7.33332 8.66659 7.6318 8.66659 7.99999C8.66659 8.36818 8.36811 8.66666 7.99992 8.66666C7.63173 8.66666 7.33325 8.36818 7.33325 7.99999Z" fill="white"/>
<path fill-rule="evenodd" clip-rule="evenodd" d="M7.99995 3.66666C5.1359 3.66666 2.65655 5.30863 1.4497 7.69952C1.35434 7.88843 1.35433 8.11141 1.44969 8.30033C2.65652 10.6913 5.13591 12.3333 8.00001 12.3333C10.8641 12.3333 13.3434 10.6913 14.5503 8.30046C14.6456 8.11155 14.6456 7.88857 14.5503 7.69965C13.3434 5.3087 10.864 3.66666 7.99995 3.66666ZM8.00001 11C5.78013 11 3.84073 9.79455 2.80253 7.99994C3.84074 6.20538 5.78011 4.99999 7.99995 4.99999C10.2198 4.99999 12.1592 6.20543 13.1974 8.00004C12.1592 9.7946 10.2198 11 8.00001 11Z" fill="white"/>
</g>
</g>
</svg>
