<svg width="400" height="26" viewBox="0 0 400 26" fill="none" xmlns="http://www.w3.org/2000/svg">
<path d="M6.45515 16.826V19.9285H5.31027C1.66572 19.9285 0 18.6866 0 13.7235V5.03815H3.85221V13.7235C3.85221 15.3988 4.37187 15.7926 5.31027 15.7926H5.41355L6.45515 16.826Z" fill="#D5CC65"/>
<path d="M10.8282 16.826V19.9285H6.24864L5.20703 18.894V15.7925H9.78768L10.8282 16.826Z" fill="#D5CC65"/>
<path d="M15.2023 16.826V19.9285H10.6215L9.58105 18.894V15.7925H14.1607L15.2023 16.826Z" fill="#D5CC65"/>
<path d="M19.5752 16.826V19.9285H14.9957L13.9541 18.894V15.7925H18.5347L19.5752 16.826Z" fill="#D5CC65"/>
<path d="M23.9495 16.826V19.9285H19.3676L18.3271 18.894V15.7925H22.9079L23.9495 16.826Z" fill="#D5CC65"/>
<path d="M29.2597 7.85051C29.2597 8.98765 28.6356 9.69131 27.3231 9.69131C26.76 9.69131 26.3025 9.4431 25.9904 9.02958C25.7406 9.73323 25.1155 10.2086 24.1793 10.2086C22.9922 10.2086 22.3881 9.48502 22.1593 8.28511L21.9717 7.29247C22.4914 7.06416 23.0333 6.91968 23.5963 6.81712C23.8462 8.18138 23.8673 8.55416 24.4092 8.55416C24.8256 8.55416 24.9499 8.24319 24.9499 7.91343C24.9499 7.78877 24.9289 7.66412 24.9089 7.56157L24.7412 6.85792L26.2825 6.58881L26.4702 7.39503C26.5734 7.82959 26.7833 8.03691 27.0743 8.03691C27.4696 8.03691 27.594 7.82959 27.594 7.49872C27.594 7.16783 27.4485 6.69248 27.3231 6.23809C27.8638 6.11456 28.3847 6.0517 28.8843 6.0517C29.1342 6.7344 29.2586 7.33438 29.2586 7.85051" fill="#D5CC65"/>
<path d="M23.7418 19.9285L22.7002 18.894V15.7925H22.8046C23.7207 15.7925 24.2615 15.3172 24.2615 13.5173V11.6556H28.1137V13.7235C28.1137 15.3161 28.6145 15.7925 29.5717 15.7925H29.6761L30.7177 16.826V19.9285H30.6133C29.0521 19.9285 28.1969 19.0395 27.8227 16.9297C27.1987 19.0804 25.6996 19.9285 23.9495 19.9285H23.7407H23.7418ZM30.9254 23.6507C30.2802 24.4162 29.3019 25.346 28.5312 25.9261C28.0715 25.5743 27.4896 25.058 26.9699 24.5618C26.4491 25.058 25.8872 25.5743 25.4075 25.9261C24.659 25.3471 23.6174 24.4173 23.0133 23.6507C23.6174 22.8865 24.659 21.9556 25.4075 21.3755C25.8872 21.7273 26.4491 22.2434 26.9699 22.7398C27.4896 22.2434 28.0726 21.7273 28.5312 21.3755C29.3008 21.9545 30.2802 22.8853 30.9254 23.6507Z" fill="#D5CC65"/>
<path d="M38.7561 0.0739441C38.9227 0.611059 39.0059 1.14928 39.0471 1.6875L32.8851 2.76283C32.7173 2.22461 32.6341 1.6875 32.593 1.14928L38.7561 0.0739441Z" fill="#D5CC65"/>
<path d="M46.231 13.1037C46.231 14.1371 45.9822 15.6272 45.608 16.826C44.462 18.2311 43.4204 19.1013 40.6098 20.1347C39.0896 19.9086 37.3617 19.3704 35.8415 18.5223C34.3845 19.3902 32.6756 19.9285 31.0298 19.9285H30.5101L29.4685 18.894V15.7926H32.7377C32.1958 14.9433 31.8638 13.9927 31.8638 12.9371C31.8638 10.9111 33.2174 9.38028 35.6527 9.38028C38.2967 9.38028 39.8791 10.8284 39.8791 12.8952C39.8791 13.9916 39.4205 15.0878 38.651 16.1014C39.8791 16.1631 41.4205 16.2051 43.316 16.2051C43.4404 15.7077 43.5237 15.1915 43.5237 14.6952C43.5237 11.0357 40.5676 8.34576 33.6328 8.34576C33.8004 6.91861 34.1958 4.8308 34.57 4.20987C41.3583 4.20987 46.2299 7.66414 46.2299 13.1026M34.3612 14.4261C34.3612 14.9841 34.7354 15.3977 35.6527 15.6669C36.8387 15.4397 37.1729 14.9632 37.1729 14.4261C37.1729 13.7853 36.6099 13.5162 35.7571 13.5162C34.7777 13.5162 34.3612 13.7853 34.3612 14.4261Z" fill="#D5CC65"/>
<path d="M57.6365 3.4809H61.17V9.80608H67.4297V3.4809H70.9632V18.9701H67.4297V12.5799H61.17V18.9701H57.6365V3.4809Z" fill="white"/>
<path d="M73.1897 15.829C73.1897 13.1864 75.6316 12.1894 79.1218 12.1894H80.4088V11.7339C80.4088 10.3905 79.9935 9.65493 78.5555 9.65493C77.3117 9.65493 76.7454 10.2825 76.6144 11.2574H73.6262C73.8227 8.57183 75.9603 7.37961 78.752 7.37961C81.5437 7.37961 83.5293 8.50677 83.5293 11.5817V18.9689H80.4533V17.6047C79.7992 18.5135 78.7954 19.2072 77.0075 19.2072C74.9343 19.2072 73.1908 18.2101 73.1908 15.8279M80.41 15.0051V14.0522H79.1885C77.3562 14.0522 76.2868 14.4426 76.2868 15.6558C76.2868 16.4786 76.7888 17.0201 77.9447 17.0201C79.3417 17.0201 80.41 16.2624 80.41 15.0051Z" fill="white"/>
<path d="M89.3093 17.822L84.772 7.63995H88.1744L90.945 14.4426L93.4969 7.63995H96.5284L90.3554 22.8258H87.3027L89.3093 17.822Z" fill="white"/>
<path d="M101.83 17.822L97.2925 7.63995H100.695L103.466 14.4426L106.017 7.63995H109.049L102.876 22.8258H99.8233L101.83 17.822Z" fill="white"/>
<path d="M109.661 15.829C109.661 13.1864 112.103 12.1894 115.593 12.1894H116.88V11.7339C116.88 10.3905 116.465 9.65493 115.027 9.65493C113.783 9.65493 113.217 10.2825 113.086 11.2574H110.097C110.294 8.57183 112.431 7.37961 115.223 7.37961C118.015 7.37961 120 8.50677 120 11.5817V18.9689H116.924V17.6047C116.27 18.5135 115.266 19.2072 113.479 19.2072C111.405 19.2072 109.662 18.2101 109.662 15.8279M116.881 15.0051V14.0522H115.66C113.827 14.0522 112.758 14.4426 112.758 15.6558C112.758 16.4786 113.26 17.0201 114.416 17.0201C115.813 17.0201 116.881 16.2624 116.881 15.0051Z" fill="white"/>
<path d="M96.7712 5.53223C96.6013 6.40024 96.1949 6.80393 95.5342 6.80393C94.7024 6.80393 94.2327 6.12675 94.2327 4.91907C94.2327 4.57933 94.276 4.15583 94.3826 3.79627L95.5986 3.6904C95.5131 3.9871 95.4708 4.28263 95.4708 4.51538C95.4708 4.83301 95.5552 5.0668 95.8539 5.0668C96.196 5.0668 96.3448 4.62236 96.3448 3.56138L97.5386 3.43561C97.5386 4.34555 97.6884 4.72713 97.986 4.72713C98.2837 4.72713 98.4125 4.47235 98.4125 4.04995C98.4125 3.81727 98.3903 3.56249 98.327 3.26578L99.564 3.13898C99.6284 3.45661 99.6484 3.85912 99.6484 4.15583C99.6484 5.66021 99.0943 6.4642 98.0915 6.4642C97.4097 6.4642 96.9833 6.14656 96.769 5.53223" fill="white"/>
</svg>
